<mxfile host="app.diagrams.net" agent="Mozilla/5.0 (Windows NT 10.0; Win64; x64) AppleWebKit/537.36 (KHTML, like Gecko) Chrome/137.0.0.0 Safari/537.36" border="50" scale="3" compressed="false" locked="false" version="27.1.6" pages="2">
  <diagram name="Blank" id="YmL12bMKpDGza6XwsDPr">
    <mxGraphModel dx="3906" dy="1930" grid="1" gridSize="10" guides="1" tooltips="1" connect="1" arrows="1" fold="1" page="1" pageScale="1" pageWidth="827" pageHeight="1169" background="#ffffff" math="1" shadow="0">
      <root>
        <mxCell id="X5NqExCQtvZxIxQ7pmgY-0" />
        <mxCell id="1" parent="X5NqExCQtvZxIxQ7pmgY-0" />
        <mxCell id="kFkA9idod39xT0IFJ7Xu-3" value="&lt;pre style=&quot;font-family: &amp;quot;JetBrains Mono&amp;quot;, monospace; font-size: 11.3pt;&quot;&gt;&lt;span&gt;&lt;font style=&quot;&quot;&gt;Executor执行流程&lt;/font&gt;&lt;/span&gt;&lt;/pre&gt;" style="text;html=1;align=center;verticalAlign=middle;whiteSpace=wrap;rounded=0;strokeColor=#36393d;dashed=1;fillColor=#eeeeee;" parent="1" vertex="1">
          <mxGeometry x="-2470" y="-1160" width="170" height="60" as="geometry" />
        </mxCell>
        <mxCell id="kFkA9idod39xT0IFJ7Xu-5" value="&lt;pre style=&quot;font-family: &amp;quot;JetBrains Mono&amp;quot;, monospace; font-size: 11.3pt;&quot;&gt;&lt;font style=&quot;color: light-dark(rgb(17, 14, 14), rgb(43, 113, 180));&quot;&gt;Executor&lt;/font&gt;&lt;/pre&gt;" style="rounded=0;whiteSpace=wrap;html=1;sketch=1;curveFitting=1;jiggle=2;fillColor=#ffe6cc;strokeColor=#d79b00;" parent="1" vertex="1">
          <mxGeometry x="-2107" y="-1120" width="120" height="60" as="geometry" />
        </mxCell>
        <mxCell id="hmNLhs7aSOasPQDi5UYB-2" value="" style="endArrow=block;dashed=1;endFill=0;endSize=12;html=1;rounded=0;entryX=0.5;entryY=1;entryDx=0;entryDy=0;exitX=0.5;exitY=0;exitDx=0;exitDy=0;" parent="1" source="hmNLhs7aSOasPQDi5UYB-4" target="kFkA9idod39xT0IFJ7Xu-5" edge="1">
          <mxGeometry width="160" relative="1" as="geometry">
            <mxPoint x="-2047.3199999999997" y="-971.0799999999999" as="sourcePoint" />
            <mxPoint x="-1987" y="-1000" as="targetPoint" />
          </mxGeometry>
        </mxCell>
        <mxCell id="hmNLhs7aSOasPQDi5UYB-4" value="&lt;pre style=&quot;font-family: &amp;quot;JetBrains Mono&amp;quot;, monospace; font-size: 11.3pt;&quot;&gt;&lt;font style=&quot;color: light-dark(rgb(17, 14, 14), rgb(43, 113, 180));&quot;&gt;BaseExecutor&lt;/font&gt;&lt;/pre&gt;" style="rounded=0;whiteSpace=wrap;html=1;sketch=1;curveFitting=1;jiggle=2;" parent="1" vertex="1">
          <mxGeometry x="-2107" y="-990" width="120" height="60" as="geometry" />
        </mxCell>
        <mxCell id="hmNLhs7aSOasPQDi5UYB-5" value="Extends" style="endArrow=block;endSize=16;endFill=0;html=1;rounded=0;exitX=0.5;exitY=0;exitDx=0;exitDy=0;entryX=0.5;entryY=1;entryDx=0;entryDy=0;edgeStyle=orthogonalEdgeStyle;curved=1;" parent="1" source="hmNLhs7aSOasPQDi5UYB-6" edge="1">
          <mxGeometry width="160" relative="1" as="geometry">
            <mxPoint x="-2240" y="-810" as="sourcePoint" />
            <mxPoint x="-2073" y="-930" as="targetPoint" />
          </mxGeometry>
        </mxCell>
        <mxCell id="hmNLhs7aSOasPQDi5UYB-6" value="&lt;pre style=&quot;font-family: &amp;quot;JetBrains Mono&amp;quot;, monospace; font-size: 11.3pt;&quot;&gt;&lt;font style=&quot;color: light-dark(rgb(17, 14, 14), rgb(43, 113, 180));&quot;&gt;SimpleExecutor&lt;/font&gt;&lt;/pre&gt;" style="rounded=0;whiteSpace=wrap;html=1;sketch=1;curveFitting=1;jiggle=2;fillColor=#d5e8d4;strokeColor=#82b366;" parent="1" vertex="1">
          <mxGeometry x="-2300" y="-820" width="120" height="60" as="geometry" />
        </mxCell>
        <mxCell id="hmNLhs7aSOasPQDi5UYB-7" value="&lt;pre style=&quot;font-family: &amp;quot;JetBrains Mono&amp;quot;, monospace; font-size: 11.3pt;&quot;&gt;&lt;font style=&quot;color: light-dark(rgb(17, 14, 14), rgb(43, 113, 180));&quot;&gt;ReuseExecutor&lt;/font&gt;&lt;/pre&gt;" style="rounded=0;whiteSpace=wrap;html=1;sketch=1;curveFitting=1;jiggle=2;fillColor=#d5e8d4;strokeColor=#82b366;" parent="1" vertex="1">
          <mxGeometry x="-2102" y="-820" width="120" height="60" as="geometry" />
        </mxCell>
        <mxCell id="hmNLhs7aSOasPQDi5UYB-8" value="&lt;pre style=&quot;font-family: &amp;quot;JetBrains Mono&amp;quot;, monospace; font-size: 11.3pt;&quot;&gt;&lt;font style=&quot;color: light-dark(rgb(17, 14, 14), rgb(43, 113, 180));&quot;&gt;BatchExecutor&lt;/font&gt;&lt;/pre&gt;" style="rounded=0;whiteSpace=wrap;html=1;sketch=1;curveFitting=1;jiggle=2;fillColor=#d5e8d4;strokeColor=#82b366;" parent="1" vertex="1">
          <mxGeometry x="-1922" y="-820" width="120" height="60" as="geometry" />
        </mxCell>
        <mxCell id="hmNLhs7aSOasPQDi5UYB-10" value="Extends" style="endArrow=block;endSize=16;endFill=0;html=1;rounded=0;exitX=0.5;exitY=0;exitDx=0;exitDy=0;entryX=0.5;entryY=1;entryDx=0;entryDy=0;edgeStyle=orthogonalEdgeStyle;curved=1;" parent="1" source="hmNLhs7aSOasPQDi5UYB-7" edge="1">
          <mxGeometry width="160" relative="1" as="geometry">
            <mxPoint x="-2230" y="-820.52" as="sourcePoint" />
            <mxPoint x="-2045" y="-930.52" as="targetPoint" />
          </mxGeometry>
        </mxCell>
        <mxCell id="hmNLhs7aSOasPQDi5UYB-11" value="Extends" style="endArrow=block;endSize=16;endFill=0;html=1;rounded=0;edgeStyle=orthogonalEdgeStyle;curved=1;exitX=0.5;exitY=0;exitDx=0;exitDy=0;" parent="1" source="hmNLhs7aSOasPQDi5UYB-8" edge="1">
          <mxGeometry width="160" relative="1" as="geometry">
            <mxPoint x="-1862" y="-830" as="sourcePoint" />
            <mxPoint x="-2020" y="-930" as="targetPoint" />
          </mxGeometry>
        </mxCell>
        <mxCell id="hmNLhs7aSOasPQDi5UYB-18" value="" style="rounded=0;whiteSpace=wrap;html=1;dashed=1;" parent="1" vertex="1">
          <mxGeometry x="-1860" y="-1020" width="200" height="110" as="geometry" />
        </mxCell>
        <mxCell id="hmNLhs7aSOasPQDi5UYB-13" value="&lt;div&gt;&lt;pre style=&quot;font-family: &amp;quot;JetBrains Mono&amp;quot;, monospace; font-size: 11.3pt;&quot;&gt;&lt;span&gt;&lt;font style=&quot;color: light-dark(rgb(255, 255, 255), rgb(43, 113, 180));&quot;&gt;update&lt;/font&gt;&lt;/span&gt;&lt;/pre&gt;&lt;/div&gt;" style="rounded=0;whiteSpace=wrap;html=1;fillColor=#60a917;strokeColor=#2D7600;fontColor=#ffffff;" parent="1" vertex="1">
          <mxGeometry x="-1840" y="-1002.5" width="60" height="30" as="geometry" />
        </mxCell>
        <mxCell id="hmNLhs7aSOasPQDi5UYB-15" value="&lt;div&gt;&lt;pre style=&quot;font-family: &amp;quot;JetBrains Mono&amp;quot;, monospace; font-size: 11.3pt;&quot;&gt;&lt;span&gt;&lt;font style=&quot;color: light-dark(rgb(12, 11, 14), rgb(43, 113, 180));&quot;&gt;doUpdate&lt;/font&gt;&lt;/span&gt;&lt;/pre&gt;&lt;/div&gt;" style="rounded=0;whiteSpace=wrap;html=1;fillColor=#eeeeee;strokeColor=#36393d;" parent="1" vertex="1">
          <mxGeometry x="-1750" y="-1002.5" width="70" height="30" as="geometry" />
        </mxCell>
        <mxCell id="hmNLhs7aSOasPQDi5UYB-16" value="&lt;pre style=&quot;font-family: &amp;quot;JetBrains Mono&amp;quot;, monospace; font-size: 11.3pt;&quot;&gt;&lt;font style=&quot;color: light-dark(rgb(241, 240, 245), rgb(228, 227, 230));&quot;&gt;query&lt;/font&gt;&lt;/pre&gt;" style="rounded=0;whiteSpace=wrap;html=1;fillColor=#60a917;strokeColor=#2D7600;fontColor=#ffffff;" parent="1" vertex="1">
          <mxGeometry x="-1840" y="-957.5" width="60" height="30" as="geometry" />
        </mxCell>
        <mxCell id="hmNLhs7aSOasPQDi5UYB-17" value="&lt;div&gt;&lt;pre style=&quot;font-family: &amp;quot;JetBrains Mono&amp;quot;, monospace; font-size: 11.3pt;&quot;&gt;&lt;span&gt;&lt;font style=&quot;color: light-dark(rgb(12, 11, 14), rgb(43, 113, 180));&quot;&gt;doQ&lt;/font&gt;&lt;/span&gt;uery&lt;/pre&gt;&lt;/div&gt;" style="rounded=0;whiteSpace=wrap;html=1;fillColor=#eeeeee;strokeColor=#36393d;" parent="1" vertex="1">
          <mxGeometry x="-1750" y="-957.5" width="70" height="30" as="geometry" />
        </mxCell>
        <mxCell id="hmNLhs7aSOasPQDi5UYB-19" value="&lt;font style=&quot;color: light-dark(rgb(255, 102, 102), rgb(237, 237, 237));&quot;&gt;事务管理,缓存维护&lt;/font&gt;" style="text;html=1;align=center;verticalAlign=middle;whiteSpace=wrap;rounded=0;" parent="1" vertex="1">
          <mxGeometry x="-1871" y="-1050" width="122" height="30" as="geometry" />
        </mxCell>
        <mxCell id="RMZ8sAWD6F0i_Kk_ml5E-15" style="edgeStyle=orthogonalEdgeStyle;rounded=0;orthogonalLoop=1;jettySize=auto;html=1;entryX=0;entryY=0.5;entryDx=0;entryDy=0;fontFamily=Helvetica;fontSize=12;fontColor=default;" parent="1" source="hmNLhs7aSOasPQDi5UYB-21" target="hmNLhs7aSOasPQDi5UYB-4" edge="1">
          <mxGeometry relative="1" as="geometry" />
        </mxCell>
        <mxCell id="hmNLhs7aSOasPQDi5UYB-21" value="&lt;pre style=&quot;font-family: &amp;quot;JetBrains Mono&amp;quot;, monospace; font-size: 11.3pt;&quot;&gt;&lt;font style=&quot;color: light-dark(rgb(17, 14, 14), rgb(43, 113, 180));&quot;&gt;CacheExecutor&lt;/font&gt;&lt;/pre&gt;" style="rounded=0;whiteSpace=wrap;html=1;sketch=1;curveFitting=1;jiggle=2;" parent="1" vertex="1">
          <mxGeometry x="-2300" y="-990" width="130" height="60" as="geometry" />
        </mxCell>
        <mxCell id="hmNLhs7aSOasPQDi5UYB-22" value="" style="endArrow=block;dashed=1;endFill=0;endSize=12;html=1;rounded=0;entryX=0.5;entryY=1;entryDx=0;entryDy=0;exitX=0.5;exitY=0;exitDx=0;exitDy=0;edgeStyle=orthogonalEdgeStyle;curved=1;" parent="1" source="hmNLhs7aSOasPQDi5UYB-21" edge="1">
          <mxGeometry width="160" relative="1" as="geometry">
            <mxPoint x="-2080" y="-990" as="sourcePoint" />
            <mxPoint x="-2080" y="-1060" as="targetPoint" />
          </mxGeometry>
        </mxCell>
        <mxCell id="hmNLhs7aSOasPQDi5UYB-23" value="&lt;pre style=&quot;font-family: &amp;quot;JetBrains Mono&amp;quot;, monospace; font-size: 11.3pt;&quot;&gt;&lt;div&gt;&lt;pre style=&quot;font-family: &amp;quot;JetBrains Mono&amp;quot;, monospace; font-size: 11.3pt;&quot;&gt;&lt;span&gt;&lt;font style=&quot;color: light-dark(rgb(253, 247, 247), rgb(159, 95, 149));&quot;&gt;delegate&lt;/font&gt;&lt;/span&gt;&lt;/pre&gt;&lt;/div&gt;&lt;/pre&gt;" style="rounded=0;whiteSpace=wrap;html=1;fillColor=#60a917;strokeColor=#2D7600;fontColor=#ffffff;" parent="1" vertex="1">
          <mxGeometry x="-2230" y="-952.5" width="80" height="20" as="geometry" />
        </mxCell>
        <mxCell id="RMZ8sAWD6F0i_Kk_ml5E-14" style="edgeStyle=orthogonalEdgeStyle;rounded=0;orthogonalLoop=1;jettySize=auto;html=1;exitX=1;exitY=0.25;exitDx=0;exitDy=0;entryX=0;entryY=0.25;entryDx=0;entryDy=0;fontFamily=Helvetica;fontSize=12;fontColor=default;" parent="1" source="hmNLhs7aSOasPQDi5UYB-25" target="hmNLhs7aSOasPQDi5UYB-21" edge="1">
          <mxGeometry relative="1" as="geometry" />
        </mxCell>
        <mxCell id="hmNLhs7aSOasPQDi5UYB-25" value="&lt;pre style=&quot;font-family: &amp;quot;JetBrains Mono&amp;quot;, monospace; font-size: 11.3pt;&quot;&gt;&lt;div&gt;&lt;pre style=&quot;font-family: &amp;quot;JetBrains Mono&amp;quot;, monospace; font-size: 11.3pt;&quot;&gt;&lt;pre style=&quot;font-size: 11.3pt; font-family: &amp;quot;JetBrains Mono&amp;quot;, monospace;&quot;&gt;&lt;span&gt;&lt;font style=&quot;color: rgb(0, 0, 0);&quot;&gt;SqlSession&lt;/font&gt;&lt;/span&gt;&lt;/pre&gt;&lt;/pre&gt;&lt;/div&gt;&lt;/pre&gt;" style="rounded=0;whiteSpace=wrap;html=1;sketch=1;curveFitting=1;jiggle=2;" parent="1" vertex="1">
          <mxGeometry x="-2470" y="-990" width="120" height="60" as="geometry" />
        </mxCell>
        <mxCell id="hmNLhs7aSOasPQDi5UYB-27" value="&lt;pre style=&quot;font-family: &amp;quot;JetBrains Mono&amp;quot;, monospace; font-size: 11.3pt;&quot;&gt;&lt;pre style=&quot;font-family: &amp;quot;JetBrains Mono&amp;quot;, monospace; font-size: 11.3pt;&quot;&gt;&lt;font color=&quot;#fdf7f7&quot;&gt;executor&lt;/font&gt;&lt;/pre&gt;&lt;/pre&gt;" style="rounded=0;whiteSpace=wrap;html=1;fillColor=#60a917;strokeColor=#2D7600;fontColor=#ffffff;" parent="1" vertex="1">
          <mxGeometry x="-2390" y="-952.5" width="80" height="20" as="geometry" />
        </mxCell>
        <mxCell id="hmNLhs7aSOasPQDi5UYB-28" value="&lt;pre style=&quot;font-family: &amp;quot;JetBrains Mono&amp;quot;, monospace; font-size: 11.3pt;&quot;&gt;&lt;pre style=&quot;font-family: &amp;quot;JetBrains Mono&amp;quot;, monospace; font-size: 11.3pt;&quot;&gt;&lt;font color=&quot;#fdf7f7&quot;&gt;二级缓存&lt;/font&gt;&lt;/pre&gt;&lt;/pre&gt;" style="rounded=0;whiteSpace=wrap;html=1;fillColor=#60a917;strokeColor=#2D7600;fontColor=#ffffff;" parent="1" vertex="1">
          <mxGeometry x="-2230" y="-990" width="80" height="20" as="geometry" />
        </mxCell>
        <mxCell id="hmNLhs7aSOasPQDi5UYB-29" value="&lt;pre style=&quot;font-family: &amp;quot;JetBrains Mono&amp;quot;, monospace; font-size: 11.3pt;&quot;&gt;&lt;pre style=&quot;font-family: &amp;quot;JetBrains Mono&amp;quot;, monospace; font-size: 11.3pt;&quot;&gt;&lt;font color=&quot;#fdf7f7&quot;&gt;一级缓存&lt;/font&gt;&lt;/pre&gt;&lt;/pre&gt;" style="rounded=0;whiteSpace=wrap;html=1;fillColor=#60a917;strokeColor=#2D7600;fontColor=#ffffff;" parent="1" vertex="1">
          <mxGeometry x="-2030" y="-990" width="80" height="20" as="geometry" />
        </mxCell>
        <mxCell id="hmNLhs7aSOasPQDi5UYB-31" value="每次会创建一个新的&amp;nbsp;&lt;div&gt;PreparedStatementHandler&lt;/div&gt;" style="text;html=1;align=left;verticalAlign=middle;whiteSpace=wrap;rounded=0;" parent="1" vertex="1">
          <mxGeometry x="-2310" y="-750" width="160" height="30" as="geometry" />
        </mxCell>
        <mxCell id="hmNLhs7aSOasPQDi5UYB-32" value="复用&lt;br&gt;&lt;div&gt;PreparedStatementHandler&lt;/div&gt;" style="text;html=1;align=left;verticalAlign=middle;whiteSpace=wrap;rounded=0;" parent="1" vertex="1">
          <mxGeometry x="-2107" y="-750" width="160" height="30" as="geometry" />
        </mxCell>
        <mxCell id="hmNLhs7aSOasPQDi5UYB-33" value="批处理提交修改，必须调用doFlushStatements 修改才生效" style="text;html=1;align=left;verticalAlign=middle;whiteSpace=wrap;rounded=0;" parent="1" vertex="1">
          <mxGeometry x="-1930" y="-760" width="150" height="80" as="geometry" />
        </mxCell>
        <mxCell id="hmNLhs7aSOasPQDi5UYB-34" value="&lt;font style=&quot;color: light-dark(rgb(184, 10, 10), rgb(237, 237, 237));&quot;&gt;装饰器模式&lt;/font&gt;" style="text;html=1;align=center;verticalAlign=middle;whiteSpace=wrap;rounded=0;" parent="1" vertex="1">
          <mxGeometry x="-2300" y="-1020" width="70" height="30" as="geometry" />
        </mxCell>
        <mxCell id="hmNLhs7aSOasPQDi5UYB-40" value="&lt;pre style=&quot;font-family: &amp;quot;JetBrains Mono&amp;quot;, monospace; font-size: 11.3pt;&quot;&gt;一级缓存命中场景&lt;/pre&gt;" style="text;html=1;align=center;verticalAlign=middle;whiteSpace=wrap;rounded=0;strokeColor=#36393d;dashed=1;fillColor=#eeeeee;" parent="1" vertex="1">
          <mxGeometry x="-2470" y="-630" width="170" height="60" as="geometry" />
        </mxCell>
        <mxCell id="hmNLhs7aSOasPQDi5UYB-41" value="&lt;pre style=&quot;font-family: &amp;quot;JetBrains Mono&amp;quot;, monospace; font-size: 11.3pt;&quot;&gt;运行时相关&lt;/pre&gt;&lt;pre style=&quot;font-family: &amp;quot;JetBrains Mono&amp;quot;, monospace; font-size: 11.3pt;&quot;&gt;&lt;span style=&quot;font-style: italic; color: light-dark(rgb(13, 12, 12), rgb(73, 74, 79)); background-color: light-dark(rgb(205, 164, 126), rgb(237, 237, 237)); font-size: 11.3pt; white-space: normal;&quot;&gt;* 1.sql语句与参数相同&lt;/span&gt;&lt;/pre&gt;&lt;pre style=&quot;font-family: &amp;quot;JetBrains Mono&amp;quot;, monospace; font-size: 11.3pt;&quot;&gt;&lt;span style=&quot;background-color: light-dark(rgb(205, 164, 126), rgb(237, 237, 237));&quot;&gt;&lt;font style=&quot;color: light-dark(rgb(13, 12, 12), rgb(73, 74, 79));&quot;&gt;&lt;span style=&quot;font-style: italic;&quot;&gt;* 2.&lt;/span&gt;&lt;span style=&quot;font-style: italic; font-family: &amp;quot;Courier New&amp;quot;, monospace;&quot;&gt;相同的 &lt;/span&gt;&lt;span style=&quot;font-style: italic;&quot;&gt;StatmentId&lt;br&gt;&lt;/span&gt;&lt;span style=&quot;font-style: italic;&quot;&gt;* 3.sqlSession &lt;/span&gt;&lt;span style=&quot;font-style: italic; font-family: &amp;quot;Courier New&amp;quot;, monospace;&quot;&gt;相同&lt;br&gt;&lt;/span&gt;&lt;span style=&quot;font-style: italic;&quot;&gt;* 4.RowBounds &lt;/span&gt;&lt;span style=&quot;font-style: italic; font-family: &amp;quot;Courier New&amp;quot;, monospace;&quot;&gt;相同&lt;/span&gt;&lt;/font&gt;&lt;/span&gt;&lt;/pre&gt;" style="text;whiteSpace=wrap;html=1;" parent="1" vertex="1">
          <mxGeometry x="-2443.5" y="-560" width="205" height="170" as="geometry" />
        </mxCell>
        <mxCell id="hmNLhs7aSOasPQDi5UYB-46" value="" style="group" parent="1" vertex="1" connectable="0">
          <mxGeometry x="-2220" y="-560" width="257" height="200" as="geometry" />
        </mxCell>
        <mxCell id="hmNLhs7aSOasPQDi5UYB-35" value="" style="shape=cylinder3;whiteSpace=wrap;html=1;boundedLbl=1;backgroundOutline=1;size=15;fillColor=#B3B3B3;strokeColor=#FFFFFF;fontColor=#ffffff;movable=1;resizable=1;rotatable=1;deletable=1;editable=1;locked=0;connectable=1;" parent="hmNLhs7aSOasPQDi5UYB-46" vertex="1">
          <mxGeometry width="257" height="200" as="geometry" />
        </mxCell>
        <mxCell id="hmNLhs7aSOasPQDi5UYB-36" value="&lt;pre style=&quot;font-family: &amp;quot;JetBrains Mono&amp;quot;, monospace; font-size: 11.3pt;&quot;&gt;&lt;pre style=&quot;font-family: &amp;quot;JetBrains Mono&amp;quot;, monospace; font-size: 11.3pt;&quot;&gt;&lt;font color=&quot;#fdf7f7&quot;&gt;key:value&lt;/font&gt;&lt;/pre&gt;&lt;/pre&gt;" style="rounded=0;whiteSpace=wrap;html=1;fillColor=#60a917;strokeColor=#2D7600;fontColor=#ffffff;movable=1;resizable=1;rotatable=1;deletable=1;editable=1;locked=0;connectable=1;" parent="hmNLhs7aSOasPQDi5UYB-46" vertex="1">
          <mxGeometry x="88.5" y="60" width="80" height="20" as="geometry" />
        </mxCell>
        <mxCell id="hmNLhs7aSOasPQDi5UYB-37" value="&lt;pre style=&quot;font-family: &amp;quot;JetBrains Mono&amp;quot;, monospace; font-size: 11.3pt;&quot;&gt;&lt;pre style=&quot;font-family: &amp;quot;JetBrains Mono&amp;quot;, monospace; font-size: 11.3pt;&quot;&gt;&lt;font color=&quot;#fdf7f7&quot;&gt;key:value&lt;/font&gt;&lt;/pre&gt;&lt;/pre&gt;" style="rounded=0;whiteSpace=wrap;html=1;fillColor=#60a917;strokeColor=#2D7600;fontColor=#ffffff;movable=1;resizable=1;rotatable=1;deletable=1;editable=1;locked=0;connectable=1;" parent="hmNLhs7aSOasPQDi5UYB-46" vertex="1">
          <mxGeometry x="88.5" y="100" width="80" height="20" as="geometry" />
        </mxCell>
        <mxCell id="hmNLhs7aSOasPQDi5UYB-38" value="&lt;pre style=&quot;font-family: &amp;quot;JetBrains Mono&amp;quot;, monospace; font-size: 11.3pt;&quot;&gt;&lt;pre style=&quot;font-family: &amp;quot;JetBrains Mono&amp;quot;, monospace; font-size: 11.3pt;&quot;&gt;&lt;font color=&quot;#fdf7f7&quot;&gt;key:value&lt;/font&gt;&lt;/pre&gt;&lt;/pre&gt;" style="rounded=0;whiteSpace=wrap;html=1;fillColor=#60a917;strokeColor=#2D7600;fontColor=#ffffff;movable=1;resizable=1;rotatable=1;deletable=1;editable=1;locked=0;connectable=1;" parent="hmNLhs7aSOasPQDi5UYB-46" vertex="1">
          <mxGeometry x="88" y="140" width="80" height="20" as="geometry" />
        </mxCell>
        <mxCell id="hmNLhs7aSOasPQDi5UYB-47" value="&lt;pre style=&quot;font-family: &amp;quot;JetBrains Mono&amp;quot;, monospace; font-size: 11.3pt;&quot;&gt;操作配置相关&lt;/pre&gt;&lt;pre style=&quot;font-family: &amp;quot;JetBrains Mono&amp;quot;, monospace; font-size: 11.3pt;&quot;&gt;&lt;span style=&quot;font-style: italic; color: light-dark(rgb(13, 12, 12), rgb(73, 74, 79)); background-color: light-dark(rgb(205, 164, 126), rgb(237, 237, 237)); font-size: 11.3pt; white-space: normal;&quot;&gt;1.未执行upddate&lt;/span&gt;&lt;/pre&gt;&lt;pre style=&quot;font-family: &amp;quot;JetBrains Mono&amp;quot;, monospace; font-size: 11.3pt;&quot;&gt;&lt;span style=&quot;font-style: italic; color: light-dark(rgb(13, 12, 12), rgb(73, 74, 79)); background-color: light-dark(rgb(205, 164, 126), rgb(237, 237, 237)); font-size: 11.3pt; white-space: normal;&quot;&gt;2.未配置flushCache=true&lt;/span&gt;&lt;/pre&gt;&lt;pre style=&quot;font-family: &amp;quot;JetBrains Mono&amp;quot;, monospace; font-size: 11.3pt;&quot;&gt;&lt;span style=&quot;font-style: italic; color: light-dark(rgb(13, 12, 12), rgb(73, 74, 79)); background-color: light-dark(rgb(205, 164, 126), rgb(237, 237, 237)); font-size: 11.3pt; white-space: normal;&quot;&gt;3.未手动清空缓存，（提交，回滚）&lt;/span&gt;&lt;/pre&gt;&lt;pre style=&quot;font-family: &amp;quot;JetBrains Mono&amp;quot;, monospace; font-size: 11.3pt;&quot;&gt;&lt;span style=&quot;font-style: italic; color: light-dark(rgb(13, 12, 12), rgb(73, 74, 79)); background-color: light-dark(rgb(205, 164, 126), rgb(237, 237, 237)); font-size: 11.3pt; white-space: normal;&quot;&gt;4.缓存作用于不是 STATEMENT&lt;/span&gt;&lt;/pre&gt;" style="text;whiteSpace=wrap;html=1;" parent="1" vertex="1">
          <mxGeometry x="-1930" y="-560" width="260" height="210" as="geometry" />
        </mxCell>
        <mxCell id="RMZ8sAWD6F0i_Kk_ml5E-1" value="&lt;pre style=&quot;font-family: &amp;quot;JetBrains Mono&amp;quot;, monospace; font-size: 11.3pt;&quot;&gt;&lt;font style=&quot;vertical-align: inherit;&quot;&gt;&lt;font style=&quot;vertical-align: inherit;&quot;&gt;二级缓存命中场景&lt;/font&gt;&lt;/font&gt;&lt;/pre&gt;" style="text;html=1;align=center;verticalAlign=middle;whiteSpace=wrap;rounded=0;strokeColor=#36393d;dashed=1;fillColor=#eeeeee;" parent="1" vertex="1">
          <mxGeometry x="-2467" y="-240" width="170" height="60" as="geometry" />
        </mxCell>
        <mxCell id="RMZ8sAWD6F0i_Kk_ml5E-2" value="&lt;pre style=&quot;font-family: &amp;quot;JetBrains Mono&amp;quot;, monospace; font-size: 11.3pt;&quot;&gt;&lt;font style=&quot;vertical-align: inherit;&quot;&gt;&lt;font style=&quot;vertical-align: inherit;&quot;&gt;&lt;font style=&quot;vertical-align: inherit;&quot;&gt;&lt;font style=&quot;vertical-align: inherit;&quot;&gt;运行时间相关&lt;/font&gt;&lt;/font&gt;&lt;/font&gt;&lt;/font&gt;&lt;/pre&gt;&lt;pre style=&quot;font-family: &amp;quot;JetBrains Mono&amp;quot;, monospace; font-size: 11.3pt;&quot;&gt;&lt;span style=&quot;font-style: italic; color: light-dark(rgb(13, 12, 12), rgb(73, 74, 79)); background-color: light-dark(rgb(205, 164, 126), rgb(237, 237, 237)); font-size: 11.3pt; white-space: normal;&quot;&gt;&lt;font style=&quot;vertical-align: inherit;&quot;&gt;&lt;font style=&quot;vertical-align: inherit;&quot;&gt;&lt;font style=&quot;vertical-align: inherit;&quot;&gt;&lt;font style=&quot;vertical-align: inherit;&quot;&gt;1.sql语句与参数相同&lt;/font&gt;&lt;/font&gt;&lt;/font&gt;&lt;/font&gt;&lt;/span&gt;&lt;/pre&gt;&lt;pre style=&quot;font-family: &amp;quot;JetBrains Mono&amp;quot;, monospace; font-size: 11.3pt;&quot;&gt;&lt;span style=&quot;background-color: light-dark(rgb(205, 164, 126), rgb(237, 237, 237));&quot;&gt;&lt;font style=&quot;color: light-dark(rgb(13, 12, 12), rgb(73, 74, 79));&quot;&gt;&lt;span style=&quot;font-style: italic;&quot;&gt;&lt;font style=&quot;vertical-align: inherit;&quot;&gt;&lt;font style=&quot;vertical-align: inherit;&quot;&gt;&lt;font style=&quot;vertical-align: inherit;&quot;&gt;&lt;font style=&quot;vertical-align: inherit;&quot;&gt;2.StatementId&lt;/font&gt;&lt;/font&gt;&lt;/font&gt;&lt;/font&gt;&lt;/span&gt;&lt;font style=&quot;vertical-align: inherit;&quot;&gt;&lt;span style=&quot;font-style: italic;&quot;&gt;&lt;font style=&quot;vertical-align: inherit;&quot;&gt;&lt;font style=&quot;vertical-align: inherit;&quot;&gt;&lt;font style=&quot;vertical-align: inherit;&quot;&gt;相同&lt;/font&gt;&lt;/font&gt;&lt;/font&gt;&lt;/span&gt;&lt;/font&gt;&lt;/font&gt;&lt;/span&gt;&lt;/pre&gt;&lt;pre style=&quot;font-family: &amp;quot;JetBrains Mono&amp;quot;, monospace; font-size: 11.3pt;&quot;&gt;&lt;span style=&quot;background-color: light-dark(rgb(205, 164, 126), rgb(237, 237, 237));&quot;&gt;&lt;font style=&quot;color: light-dark(rgb(13, 12, 12), rgb(73, 74, 79));&quot;&gt;&lt;font style=&quot;vertical-align: inherit;&quot;&gt;&lt;span style=&quot;font-style: italic;&quot;&gt;&lt;font style=&quot;vertical-align: inherit;&quot;&gt;&lt;font style=&quot;vertical-align: inherit;&quot;&gt;&lt;font style=&quot;vertical-align: inherit;&quot;&gt;3&lt;/font&gt;&lt;/font&gt;&lt;/font&gt;&lt;/span&gt;&lt;font style=&quot;vertical-align: inherit;&quot;&gt;&lt;span style=&quot;font-style: italic;&quot;&gt;&lt;font style=&quot;vertical-align: inherit;&quot;&gt;&lt;font style=&quot;vertical-align: inherit;&quot;&gt;.RowBounds&lt;/font&gt;&lt;/font&gt;&lt;/span&gt;&lt;/font&gt;&lt;span style=&quot;font-style: italic; font-family: &amp;quot;Courier New&amp;quot;, monospace;&quot;&gt;&lt;font style=&quot;vertical-align: inherit;&quot;&gt;&lt;font style=&quot;vertical-align: inherit;&quot;&gt;&lt;font style=&quot;vertical-align: inherit;&quot;&gt;相同&lt;/font&gt;&lt;/font&gt;&lt;/font&gt;&lt;/span&gt;&lt;/font&gt;&lt;/font&gt;&lt;/span&gt;&lt;/pre&gt;&lt;pre style=&quot;font-family: &amp;quot;JetBrains Mono&amp;quot;, monospace; font-size: 11.3pt;&quot;&gt;&lt;span style=&quot;background-color: light-dark(rgb(205, 164, 126), rgb(237, 237, 237));&quot;&gt;&lt;font style=&quot;color: light-dark(rgb(13, 12, 12), rgb(73, 74, 79));&quot;&gt;&lt;font style=&quot;vertical-align: inherit;&quot;&gt;&lt;font style=&quot;vertical-align: inherit;&quot;&gt;&lt;span style=&quot;font-style: italic; font-family: &amp;quot;Courier New&amp;quot;, monospace;&quot;&gt;&lt;font style=&quot;vertical-align: inherit;&quot;&gt;&lt;font style=&quot;vertical-align: inherit;&quot;&gt;4.必须提交​&lt;/font&gt;&lt;/font&gt;&lt;/span&gt;&lt;/font&gt;&lt;span style=&quot;font-style: italic;&quot;&gt;&lt;font style=&quot;vertical-align: inherit;&quot;&gt;&lt;font style=&quot;vertical-align: inherit;&quot;&gt;&lt;/font&gt;&lt;/font&gt;&lt;/span&gt;&lt;span style=&quot;font-style: italic; font-family: &amp;quot;Courier New&amp;quot;, monospace;&quot;&gt;&lt;font style=&quot;vertical-align: inherit;&quot;&gt;&lt;font style=&quot;vertical-align: inherit;&quot;&gt;&lt;/font&gt;&lt;/font&gt;&lt;/span&gt;&lt;/font&gt;&lt;span style=&quot;font-style: italic;&quot;&gt;&lt;font style=&quot;vertical-align: inherit;&quot;&gt;&lt;/font&gt;&lt;br&gt;&lt;/span&gt;&lt;span style=&quot;font-style: italic;&quot;&gt;&lt;font style=&quot;vertical-align: inherit;&quot;&gt;&lt;/font&gt;&lt;/span&gt;&lt;span style=&quot;font-style: italic; font-family: &amp;quot;Courier New&amp;quot;, monospace;&quot;&gt;&lt;font style=&quot;vertical-align: inherit;&quot;&gt;&lt;/font&gt;&lt;br&gt;&lt;/span&gt;&lt;span style=&quot;font-style: italic;&quot;&gt;&lt;font style=&quot;vertical-align: inherit;&quot;&gt;&lt;/font&gt;&lt;/span&gt;&lt;span style=&quot;font-style: italic; font-family: &amp;quot;Courier New&amp;quot;, monospace;&quot;&gt;&lt;font style=&quot;vertical-align: inherit;&quot;&gt;&lt;/font&gt;&lt;/span&gt;&lt;/font&gt;&lt;/span&gt;&lt;/pre&gt;" style="text;whiteSpace=wrap;html=1;" parent="1" vertex="1">
          <mxGeometry x="-2440.5" y="-170" width="205" height="170" as="geometry" />
        </mxCell>
        <mxCell id="RMZ8sAWD6F0i_Kk_ml5E-3" value="" style="group" parent="1" vertex="1" connectable="0">
          <mxGeometry x="-2217" y="-170" width="257" height="200" as="geometry" />
        </mxCell>
        <mxCell id="RMZ8sAWD6F0i_Kk_ml5E-4" value="" style="shape=cylinder3;whiteSpace=wrap;html=1;boundedLbl=1;backgroundOutline=1;size=15;fillColor=#B3B3B3;strokeColor=#FFFFFF;fontColor=#ffffff;movable=1;resizable=1;rotatable=1;deletable=1;editable=1;locked=0;connectable=1;" parent="RMZ8sAWD6F0i_Kk_ml5E-3" vertex="1">
          <mxGeometry width="257" height="200" as="geometry" />
        </mxCell>
        <mxCell id="RMZ8sAWD6F0i_Kk_ml5E-5" value="&lt;pre style=&quot;font-family: &amp;quot;JetBrains Mono&amp;quot;, monospace; font-size: 11.3pt;&quot;&gt;&lt;pre style=&quot;font-family: &amp;quot;JetBrains Mono&amp;quot;, monospace; font-size: 11.3pt;&quot;&gt;&lt;font color=&quot;#fdf7f7&quot;&gt;key:value&lt;/font&gt;&lt;/pre&gt;&lt;/pre&gt;" style="rounded=0;whiteSpace=wrap;html=1;fillColor=#60a917;strokeColor=#2D7600;fontColor=#ffffff;movable=1;resizable=1;rotatable=1;deletable=1;editable=1;locked=0;connectable=1;" parent="RMZ8sAWD6F0i_Kk_ml5E-3" vertex="1">
          <mxGeometry x="88.5" y="60" width="80" height="20" as="geometry" />
        </mxCell>
        <mxCell id="RMZ8sAWD6F0i_Kk_ml5E-6" value="&lt;pre style=&quot;font-family: &amp;quot;JetBrains Mono&amp;quot;, monospace; font-size: 11.3pt;&quot;&gt;&lt;pre style=&quot;font-family: &amp;quot;JetBrains Mono&amp;quot;, monospace; font-size: 11.3pt;&quot;&gt;&lt;font color=&quot;#fdf7f7&quot;&gt;key:value&lt;/font&gt;&lt;/pre&gt;&lt;/pre&gt;" style="rounded=0;whiteSpace=wrap;html=1;fillColor=#60a917;strokeColor=#2D7600;fontColor=#ffffff;movable=1;resizable=1;rotatable=1;deletable=1;editable=1;locked=0;connectable=1;" parent="RMZ8sAWD6F0i_Kk_ml5E-3" vertex="1">
          <mxGeometry x="88.5" y="100" width="80" height="20" as="geometry" />
        </mxCell>
        <mxCell id="RMZ8sAWD6F0i_Kk_ml5E-7" value="&lt;pre style=&quot;font-family: &amp;quot;JetBrains Mono&amp;quot;, monospace; font-size: 11.3pt;&quot;&gt;&lt;pre style=&quot;font-family: &amp;quot;JetBrains Mono&amp;quot;, monospace; font-size: 11.3pt;&quot;&gt;&lt;font color=&quot;#fdf7f7&quot;&gt;key:value&lt;/font&gt;&lt;/pre&gt;&lt;/pre&gt;" style="rounded=0;whiteSpace=wrap;html=1;fillColor=#60a917;strokeColor=#2D7600;fontColor=#ffffff;movable=1;resizable=1;rotatable=1;deletable=1;editable=1;locked=0;connectable=1;" parent="RMZ8sAWD6F0i_Kk_ml5E-3" vertex="1">
          <mxGeometry x="88" y="140" width="80" height="20" as="geometry" />
        </mxCell>
        <mxCell id="RMZ8sAWD6F0i_Kk_ml5E-9" value="&lt;pre style=&quot;font-family: &amp;quot;JetBrains Mono&amp;quot;, monospace; font-size: 11.3pt;&quot;&gt;&lt;font style=&quot;vertical-align: inherit;&quot;&gt;&lt;font style=&quot;vertical-align: inherit;&quot;&gt;&lt;font style=&quot;vertical-align: inherit;&quot;&gt;&lt;font style=&quot;vertical-align: inherit;&quot;&gt;二级缓存执行流程&lt;/font&gt;&lt;/font&gt;&lt;/font&gt;&lt;/font&gt;&lt;/pre&gt;" style="text;html=1;align=center;verticalAlign=middle;whiteSpace=wrap;rounded=0;strokeColor=#36393d;dashed=1;fillColor=#eeeeee;" parent="1" vertex="1">
          <mxGeometry x="-2450" y="150" width="170" height="60" as="geometry" />
        </mxCell>
        <mxCell id="RMZ8sAWD6F0i_Kk_ml5E-12" style="edgeStyle=orthogonalEdgeStyle;rounded=0;orthogonalLoop=1;jettySize=auto;html=1;exitX=0.5;exitY=1;exitDx=0;exitDy=0;fontFamily=Helvetica;fontSize=12;fontColor=default;" parent="1" source="RMZ8sAWD6F0i_Kk_ml5E-10" target="RMZ8sAWD6F0i_Kk_ml5E-11" edge="1">
          <mxGeometry relative="1" as="geometry" />
        </mxCell>
        <mxCell id="RMZ8sAWD6F0i_Kk_ml5E-10" value="SqlSession" style="rounded=0;whiteSpace=wrap;html=1;sketch=1;jiggle=2;curveFitting=1;strokeColor=#d79b00;align=center;verticalAlign=middle;fontFamily=Helvetica;fontSize=12;fontColor=default;fillColor=#ffe6cc;" parent="1" vertex="1">
          <mxGeometry x="-2148.5" y="160" width="120" height="60" as="geometry" />
        </mxCell>
        <mxCell id="RMZ8sAWD6F0i_Kk_ml5E-41" style="edgeStyle=orthogonalEdgeStyle;rounded=0;orthogonalLoop=1;jettySize=auto;html=1;exitX=0.75;exitY=1;exitDx=0;exitDy=0;fontFamily=Helvetica;fontSize=12;fontColor=default;" parent="1" source="RMZ8sAWD6F0i_Kk_ml5E-11" target="RMZ8sAWD6F0i_Kk_ml5E-40" edge="1">
          <mxGeometry relative="1" as="geometry" />
        </mxCell>
        <mxCell id="RMZ8sAWD6F0i_Kk_ml5E-46" style="edgeStyle=orthogonalEdgeStyle;rounded=0;orthogonalLoop=1;jettySize=auto;html=1;exitX=1;exitY=0.5;exitDx=0;exitDy=0;entryX=0.5;entryY=0;entryDx=0;entryDy=0;fontFamily=Helvetica;fontSize=12;fontColor=default;" parent="1" source="RMZ8sAWD6F0i_Kk_ml5E-11" target="RMZ8sAWD6F0i_Kk_ml5E-45" edge="1">
          <mxGeometry relative="1" as="geometry" />
        </mxCell>
        <mxCell id="RMZ8sAWD6F0i_Kk_ml5E-11" value="CacheExecutor" style="rounded=0;whiteSpace=wrap;html=1;sketch=1;jiggle=2;curveFitting=1;strokeColor=#d79b00;align=center;verticalAlign=middle;fontFamily=Helvetica;fontSize=12;fontColor=default;fillColor=#ffe6cc;" parent="1" vertex="1">
          <mxGeometry x="-2148.5" y="260" width="120" height="60" as="geometry" />
        </mxCell>
        <mxCell id="RMZ8sAWD6F0i_Kk_ml5E-26" value="" style="edgeStyle=orthogonalEdgeStyle;rounded=0;orthogonalLoop=1;jettySize=auto;html=1;fontFamily=Helvetica;fontSize=12;fontColor=default;" parent="1" source="RMZ8sAWD6F0i_Kk_ml5E-21" target="RMZ8sAWD6F0i_Kk_ml5E-25" edge="1">
          <mxGeometry relative="1" as="geometry" />
        </mxCell>
        <mxCell id="RMZ8sAWD6F0i_Kk_ml5E-38" value="是" style="edgeLabel;html=1;align=center;verticalAlign=middle;resizable=0;points=[];rounded=0;sketch=1;jiggle=2;curveFitting=1;strokeColor=#d79b00;fontFamily=Helvetica;fontSize=12;fontColor=default;fillColor=#ffe6cc;" parent="RMZ8sAWD6F0i_Kk_ml5E-26" vertex="1" connectable="0">
          <mxGeometry x="-0.5312" y="-2" relative="1" as="geometry">
            <mxPoint as="offset" />
          </mxGeometry>
        </mxCell>
        <mxCell id="RMZ8sAWD6F0i_Kk_ml5E-28" style="edgeStyle=orthogonalEdgeStyle;rounded=0;orthogonalLoop=1;jettySize=auto;html=1;exitX=0;exitY=0.5;exitDx=0;exitDy=0;entryX=1;entryY=0.5;entryDx=0;entryDy=0;fontFamily=Helvetica;fontSize=12;fontColor=default;" parent="1" source="RMZ8sAWD6F0i_Kk_ml5E-21" target="RMZ8sAWD6F0i_Kk_ml5E-27" edge="1">
          <mxGeometry relative="1" as="geometry" />
        </mxCell>
        <mxCell id="RMZ8sAWD6F0i_Kk_ml5E-37" value="否" style="edgeLabel;html=1;align=center;verticalAlign=middle;resizable=0;points=[];rounded=0;sketch=1;jiggle=2;curveFitting=1;strokeColor=#d79b00;fontFamily=Helvetica;fontSize=12;fontColor=default;fillColor=#ffe6cc;" parent="RMZ8sAWD6F0i_Kk_ml5E-28" vertex="1" connectable="0">
          <mxGeometry x="-0.1" relative="1" as="geometry">
            <mxPoint as="offset" />
          </mxGeometry>
        </mxCell>
        <mxCell id="RMZ8sAWD6F0i_Kk_ml5E-21" value="缓存存在" style="rhombus;whiteSpace=wrap;html=1;rounded=0;strokeColor=#B09500;align=center;verticalAlign=middle;fontFamily=Helvetica;fontSize=12;fontColor=#000000;fillColor=#e3c800;" parent="1" vertex="1">
          <mxGeometry x="-2182" y="480" width="80" height="80" as="geometry" />
        </mxCell>
        <mxCell id="RMZ8sAWD6F0i_Kk_ml5E-24" style="edgeStyle=orthogonalEdgeStyle;rounded=0;orthogonalLoop=1;jettySize=auto;html=1;exitX=0.5;exitY=1;exitDx=0;exitDy=0;fontFamily=Helvetica;fontSize=12;fontColor=default;" parent="1" source="RMZ8sAWD6F0i_Kk_ml5E-22" target="RMZ8sAWD6F0i_Kk_ml5E-21" edge="1">
          <mxGeometry relative="1" as="geometry" />
        </mxCell>
        <mxCell id="RMZ8sAWD6F0i_Kk_ml5E-22" value="query&lt;div&gt;修改&lt;/div&gt;" style="rounded=0;whiteSpace=wrap;html=1;sketch=1;jiggle=2;curveFitting=1;strokeColor=#d79b00;align=center;verticalAlign=middle;fontFamily=Helvetica;fontSize=12;fontColor=default;fillColor=#ffe6cc;" parent="1" vertex="1">
          <mxGeometry x="-2202" y="380" width="120" height="60" as="geometry" />
        </mxCell>
        <mxCell id="RMZ8sAWD6F0i_Kk_ml5E-32" style="edgeStyle=orthogonalEdgeStyle;rounded=0;orthogonalLoop=1;jettySize=auto;html=1;exitX=0.5;exitY=1;exitDx=0;exitDy=0;fontFamily=Helvetica;fontSize=12;fontColor=default;" parent="1" source="RMZ8sAWD6F0i_Kk_ml5E-25" target="RMZ8sAWD6F0i_Kk_ml5E-31" edge="1">
          <mxGeometry relative="1" as="geometry" />
        </mxCell>
        <mxCell id="RMZ8sAWD6F0i_Kk_ml5E-25" value="getObject&lt;div&gt;&lt;span style=&quot;background-color: transparent; color: light-dark(rgb(0, 0, 0), rgb(255, 255, 255));&quot;&gt;【查询缓存】&lt;/span&gt;&lt;div&gt;&lt;div&gt;&lt;br&gt;&lt;/div&gt;&lt;/div&gt;&lt;/div&gt;" style="rounded=0;whiteSpace=wrap;html=1;fillColor=#ffe6cc;strokeColor=#d79b00;sketch=1;jiggle=2;curveFitting=1;align=center;" parent="1" vertex="1">
          <mxGeometry x="-2202" y="600" width="120" height="60" as="geometry" />
        </mxCell>
        <mxCell id="RMZ8sAWD6F0i_Kk_ml5E-30" value="" style="edgeStyle=orthogonalEdgeStyle;rounded=0;orthogonalLoop=1;jettySize=auto;html=1;fontFamily=Helvetica;fontSize=12;fontColor=default;" parent="1" source="RMZ8sAWD6F0i_Kk_ml5E-27" target="RMZ8sAWD6F0i_Kk_ml5E-29" edge="1">
          <mxGeometry relative="1" as="geometry" />
        </mxCell>
        <mxCell id="RMZ8sAWD6F0i_Kk_ml5E-36" style="edgeStyle=orthogonalEdgeStyle;rounded=0;orthogonalLoop=1;jettySize=auto;html=1;exitX=0;exitY=0.5;exitDx=0;exitDy=0;fontFamily=Helvetica;fontSize=12;fontColor=default;" parent="1" source="RMZ8sAWD6F0i_Kk_ml5E-27" edge="1">
          <mxGeometry relative="1" as="geometry">
            <mxPoint x="-2390" y="520" as="targetPoint" />
          </mxGeometry>
        </mxCell>
        <mxCell id="RMZ8sAWD6F0i_Kk_ml5E-27" value="query查询" style="rounded=0;whiteSpace=wrap;html=1;sketch=1;jiggle=2;curveFitting=1;strokeColor=#d79b00;align=center;verticalAlign=middle;fontFamily=Helvetica;fontSize=12;fontColor=default;fillColor=#ffe6cc;" parent="1" vertex="1">
          <mxGeometry x="-2352" y="490" width="120" height="60" as="geometry" />
        </mxCell>
        <mxCell id="RMZ8sAWD6F0i_Kk_ml5E-29" value="setObjcet&lt;div&gt;【填充暂存区】&lt;/div&gt;" style="rounded=0;whiteSpace=wrap;html=1;fillColor=#ffe6cc;strokeColor=#d79b00;sketch=1;jiggle=2;curveFitting=1;" parent="1" vertex="1">
          <mxGeometry x="-2355.5" y="600" width="120" height="60" as="geometry" />
        </mxCell>
        <mxCell id="RMZ8sAWD6F0i_Kk_ml5E-31" value="&lt;font style=&quot;color: light-dark(rgb(248, 242, 242), rgb(237, 237, 237));&quot;&gt;二级缓存&lt;/font&gt;&lt;div&gt;&lt;font style=&quot;color: light-dark(rgb(248, 242, 242), rgb(237, 237, 237));&quot;&gt;&lt;br&gt;&lt;/font&gt;&lt;/div&gt;" style="shape=cylinder3;whiteSpace=wrap;html=1;boundedLbl=1;backgroundOutline=1;size=15;rounded=0;align=center;verticalAlign=middle;fontFamily=Helvetica;fontSize=12;fillColor=light-dark(#808080,#203A00);strokeColor=light-dark(#f3f5f7, #babdc0);" parent="1" vertex="1">
          <mxGeometry x="-2172" y="760" width="60" height="80" as="geometry" />
        </mxCell>
        <mxCell id="RMZ8sAWD6F0i_Kk_ml5E-34" style="edgeStyle=orthogonalEdgeStyle;rounded=0;orthogonalLoop=1;jettySize=auto;html=1;exitX=0.5;exitY=1;exitDx=0;exitDy=0;entryX=0.469;entryY=-0.042;entryDx=0;entryDy=0;entryPerimeter=0;fontFamily=Helvetica;fontSize=12;fontColor=default;" parent="1" source="RMZ8sAWD6F0i_Kk_ml5E-11" target="RMZ8sAWD6F0i_Kk_ml5E-22" edge="1">
          <mxGeometry relative="1" as="geometry" />
        </mxCell>
        <mxCell id="RMZ8sAWD6F0i_Kk_ml5E-39" value="&lt;font style=&quot;color: light-dark(rgb(248, 242, 242), rgb(237, 237, 237));&quot;&gt;数据库&lt;/font&gt;&lt;div&gt;&lt;font style=&quot;color: light-dark(rgb(248, 242, 242), rgb(237, 237, 237));&quot;&gt;&lt;br&gt;&lt;/font&gt;&lt;/div&gt;" style="shape=cylinder3;whiteSpace=wrap;html=1;boundedLbl=1;backgroundOutline=1;size=15;rounded=0;align=center;verticalAlign=middle;fontFamily=Helvetica;fontSize=12;fillColor=light-dark(#808080,#203A00);strokeColor=light-dark(#f3f5f7, #babdc0);" parent="1" vertex="1">
          <mxGeometry x="-2450" y="480" width="60" height="80" as="geometry" />
        </mxCell>
        <mxCell id="RMZ8sAWD6F0i_Kk_ml5E-43" style="edgeStyle=orthogonalEdgeStyle;rounded=0;orthogonalLoop=1;jettySize=auto;html=1;fontFamily=Helvetica;fontSize=12;fontColor=default;" parent="1" source="RMZ8sAWD6F0i_Kk_ml5E-40" target="RMZ8sAWD6F0i_Kk_ml5E-42" edge="1">
          <mxGeometry relative="1" as="geometry" />
        </mxCell>
        <mxCell id="RMZ8sAWD6F0i_Kk_ml5E-40" value="update&lt;div&gt;修改&lt;/div&gt;" style="rounded=0;whiteSpace=wrap;html=1;sketch=1;jiggle=2;curveFitting=1;strokeColor=#d79b00;align=center;verticalAlign=middle;fontFamily=Helvetica;fontSize=12;fontColor=default;fillColor=#ffe6cc;" parent="1" vertex="1">
          <mxGeometry x="-2060" y="380" width="120" height="60" as="geometry" />
        </mxCell>
        <mxCell id="RMZ8sAWD6F0i_Kk_ml5E-42" value="clearLocalCache&lt;div&gt;【清理暂存区】&lt;/div&gt;" style="rounded=1;whiteSpace=wrap;html=1;strokeColor=#B20000;align=center;verticalAlign=middle;fontFamily=Helvetica;fontSize=12;fillColor=light-dark(#FF6666,#FF9281);fontColor=#ffffff;" parent="1" vertex="1">
          <mxGeometry x="-2060" y="600" width="120" height="60" as="geometry" />
        </mxCell>
        <mxCell id="RMZ8sAWD6F0i_Kk_ml5E-44" value="&lt;pre style=&quot;font-family: &amp;quot;JetBrains Mono&amp;quot;, monospace; font-size: 11.3pt;&quot;&gt;&lt;pre style=&quot;font-family: &amp;quot;JetBrains Mono&amp;quot;, monospace; font-size: 11.3pt;&quot;&gt;&lt;font color=&quot;#fdf7f7&quot;&gt;flushCache&lt;/font&gt;&lt;/pre&gt;&lt;/pre&gt;" style="rounded=0;whiteSpace=wrap;html=1;fillColor=#60a917;strokeColor=#2D7600;fontColor=#ffffff;movable=1;resizable=1;rotatable=1;deletable=1;editable=1;locked=0;connectable=1;" parent="1" vertex="1">
          <mxGeometry x="-1980" y="410" width="80" height="20" as="geometry" />
        </mxCell>
        <mxCell id="RMZ8sAWD6F0i_Kk_ml5E-49" style="edgeStyle=orthogonalEdgeStyle;rounded=0;orthogonalLoop=1;jettySize=auto;html=1;exitX=0.5;exitY=1;exitDx=0;exitDy=0;entryX=0.5;entryY=0;entryDx=0;entryDy=0;fontFamily=Helvetica;fontSize=12;fontColor=default;" parent="1" source="RMZ8sAWD6F0i_Kk_ml5E-45" target="RMZ8sAWD6F0i_Kk_ml5E-48" edge="1">
          <mxGeometry relative="1" as="geometry" />
        </mxCell>
        <mxCell id="RMZ8sAWD6F0i_Kk_ml5E-45" value="commit&lt;div&gt;【提交】&lt;/div&gt;" style="rounded=0;whiteSpace=wrap;html=1;sketch=1;jiggle=2;curveFitting=1;strokeColor=#d79b00;align=center;verticalAlign=middle;fontFamily=Helvetica;fontSize=12;fontColor=default;fillColor=#ffe6cc;" parent="1" vertex="1">
          <mxGeometry x="-1890" y="380" width="120" height="60" as="geometry" />
        </mxCell>
        <mxCell id="RMZ8sAWD6F0i_Kk_ml5E-48" value="commit&lt;br&gt;【提交暂存区】" style="rounded=0;fillColor=#60a917;strokeColor=#2D7600;fontColor=#ffffff;movable=1;resizable=1;rotatable=1;deletable=1;editable=1;locked=0;connectable=1;whiteSpace=wrap;html=1;" parent="1" vertex="1">
          <mxGeometry x="-1890" y="600" width="120" height="60" as="geometry" />
        </mxCell>
        <mxCell id="RMZ8sAWD6F0i_Kk_ml5E-50" style="edgeStyle=orthogonalEdgeStyle;rounded=0;orthogonalLoop=1;jettySize=auto;html=1;exitX=0.5;exitY=1;exitDx=0;exitDy=0;entryX=1;entryY=0.5;entryDx=0;entryDy=0;entryPerimeter=0;fontFamily=Helvetica;fontSize=12;fontColor=default;" parent="1" source="RMZ8sAWD6F0i_Kk_ml5E-48" target="RMZ8sAWD6F0i_Kk_ml5E-31" edge="1">
          <mxGeometry relative="1" as="geometry" />
        </mxCell>
        <mxCell id="RMZ8sAWD6F0i_Kk_ml5E-53" value="" style="shape=curlyBracket;whiteSpace=wrap;html=1;rounded=1;flipH=1;labelPosition=right;verticalLabelPosition=middle;align=left;verticalAlign=middle;strokeColor=light-dark(#272626, #996500);fontFamily=Helvetica;fontSize=12;fontColor=default;fillColor=#ffe6cc;rotation=90;" parent="1" vertex="1">
          <mxGeometry x="-2075" y="440" width="20" height="500" as="geometry" />
        </mxCell>
        <mxCell id="RMZ8sAWD6F0i_Kk_ml5E-54" value="TransactionCache" style="text;html=1;align=center;verticalAlign=middle;resizable=0;points=[];autosize=1;strokeColor=#3A5431;fillColor=light-dark(#050605, #718769);fontFamily=Helvetica;fontSize=12;fontColor=#ffffff;" parent="1" vertex="1">
          <mxGeometry x="-2125" y="710" width="120" height="30" as="geometry" />
        </mxCell>
        <mxCell id="uDBC314-pH6mvyr1H8q9-112" value="&lt;font style=&quot;color: light-dark(rgb(255, 255, 255), rgb(237, 237, 237));&quot;&gt;二级缓存配置&lt;/font&gt;" style="rounded=0;whiteSpace=wrap;html=1;fillColor=#d0cee2;strokeColor=#56517e;" parent="1" vertex="1">
          <mxGeometry x="-1930" y="-180" width="250" height="40" as="geometry" />
        </mxCell>
        <mxCell id="uDBC314-pH6mvyr1H8q9-114" value="cacheEnabled" style="rounded=0;whiteSpace=wrap;html=1;" parent="1" vertex="1">
          <mxGeometry x="-1930" y="-140" width="130" height="40" as="geometry" />
        </mxCell>
        <mxCell id="uDBC314-pH6mvyr1H8q9-115" value="二级缓存全局配置" style="rounded=0;whiteSpace=wrap;html=1;" parent="1" vertex="1">
          <mxGeometry x="-1800" y="-140" width="120" height="40" as="geometry" />
        </mxCell>
        <mxCell id="uDBC314-pH6mvyr1H8q9-117" value="useCache" style="rounded=0;whiteSpace=wrap;html=1;" parent="1" vertex="1">
          <mxGeometry x="-1930" y="-100" width="130" height="40" as="geometry" />
        </mxCell>
        <mxCell id="uDBC314-pH6mvyr1H8q9-118" value="statement 缓存开关" style="rounded=0;whiteSpace=wrap;html=1;" parent="1" vertex="1">
          <mxGeometry x="-1800" y="-100" width="120" height="40" as="geometry" />
        </mxCell>
        <mxCell id="uDBC314-pH6mvyr1H8q9-119" value="flushCache" style="rounded=0;whiteSpace=wrap;html=1;" parent="1" vertex="1">
          <mxGeometry x="-1930" y="-60" width="130" height="40" as="geometry" />
        </mxCell>
        <mxCell id="uDBC314-pH6mvyr1H8q9-120" value="清除，默认修改true,查询false" style="rounded=0;whiteSpace=wrap;html=1;" parent="1" vertex="1">
          <mxGeometry x="-1800" y="-60" width="120" height="40" as="geometry" />
        </mxCell>
        <mxCell id="uDBC314-pH6mvyr1H8q9-121" value="@CacheNamespace&lt;div&gt;或者&lt;/div&gt;&lt;div&gt;&amp;lt;cache/&amp;gt;&lt;/div&gt;" style="rounded=0;whiteSpace=wrap;html=1;" parent="1" vertex="1">
          <mxGeometry x="-1930" y="-20" width="130" height="40" as="geometry" />
        </mxCell>
        <mxCell id="uDBC314-pH6mvyr1H8q9-122" value="声明缓存空间" style="rounded=0;whiteSpace=wrap;html=1;" parent="1" vertex="1">
          <mxGeometry x="-1800" y="-20" width="120" height="40" as="geometry" />
        </mxCell>
        <mxCell id="uDBC314-pH6mvyr1H8q9-123" value="&lt;div&gt;@CacheNamespaceRef或者&lt;/div&gt;&lt;div&gt;&amp;lt;cache-ref /&amp;gt;&lt;/div&gt;" style="rounded=0;whiteSpace=wrap;html=1;" parent="1" vertex="1">
          <mxGeometry x="-1930" y="20" width="130" height="40" as="geometry" />
        </mxCell>
        <mxCell id="uDBC314-pH6mvyr1H8q9-124" value="引用缓存空间" style="rounded=0;whiteSpace=wrap;html=1;" parent="1" vertex="1">
          <mxGeometry x="-1800" y="20" width="120" height="40" as="geometry" />
        </mxCell>
        <mxCell id="k-GLsTSNxxvqujk9pTBZ-1" value="&lt;font style=&quot;color: light-dark(rgb(243, 241, 241), rgb(237, 237, 237));&quot;&gt;会话1&lt;/font&gt;" style="rounded=0;whiteSpace=wrap;html=1;strokeColor=light-dark(#f3f5f7, #babdc0);align=center;verticalAlign=middle;fontFamily=Helvetica;fontSize=12;fontColor=default;fillColor=light-dark(#808080,#203A00);" vertex="1" parent="1">
          <mxGeometry x="-2410" y="920" width="120" height="60" as="geometry" />
        </mxCell>
        <mxCell id="k-GLsTSNxxvqujk9pTBZ-2" value="&lt;font style=&quot;color: light-dark(rgb(243, 241, 241), rgb(237, 237, 237));&quot;&gt;会话2&lt;/font&gt;" style="rounded=0;whiteSpace=wrap;html=1;strokeColor=light-dark(#f3f5f7, #babdc0);align=center;verticalAlign=middle;fontFamily=Helvetica;fontSize=12;fontColor=default;fillColor=light-dark(#808080,#203A00);" vertex="1" parent="1">
          <mxGeometry x="-2202" y="920" width="120" height="60" as="geometry" />
        </mxCell>
      </root>
    </mxGraphModel>
  </diagram>
  <diagram id="bjuls_iIFgE6f3Wah0JH" name="第 2 页">
    <mxGraphModel dx="1722" dy="2088" grid="1" gridSize="10" guides="1" tooltips="1" connect="1" arrows="1" fold="1" page="1" pageScale="1" pageWidth="827" pageHeight="1169" math="0" shadow="0">
      <root>
        <mxCell id="0" />
        <mxCell id="1" parent="0" />
        <mxCell id="zhd2C60yKObcGKXQmWrA-4" value="" style="ellipse;whiteSpace=wrap;html=1;aspect=fixed;fillColor=light-dark(#c2c1c7, #3b394a);strokeColor=#56517e;" vertex="1" parent="1">
          <mxGeometry x="130" y="-1000" width="390" height="390" as="geometry" />
        </mxCell>
        <mxCell id="zhd2C60yKObcGKXQmWrA-3" value="" style="ellipse;whiteSpace=wrap;html=1;aspect=fixed;" vertex="1" parent="1">
          <mxGeometry x="200" y="-930" width="250" height="250" as="geometry" />
        </mxCell>
        <mxCell id="zhd2C60yKObcGKXQmWrA-8" value="" style="ellipse;whiteSpace=wrap;html=1;aspect=fixed;fillColor=#f8cecc;strokeColor=#b85450;dashed=1;dashPattern=8 8;" vertex="1" parent="1">
          <mxGeometry x="340" y="-990" width="70" height="70" as="geometry" />
        </mxCell>
        <mxCell id="zhd2C60yKObcGKXQmWrA-9" value="1" style="ellipse;whiteSpace=wrap;html=1;aspect=fixed;fillColor=#dae8fc;strokeColor=#6c8ebf;" vertex="1" parent="1">
          <mxGeometry x="400" y="-950" width="70" height="70" as="geometry" />
        </mxCell>
        <mxCell id="zhd2C60yKObcGKXQmWrA-10" value="&lt;font style=&quot;vertical-align: inherit;&quot;&gt;&lt;font style=&quot;vertical-align: inherit;&quot;&gt;2&lt;/font&gt;&lt;/font&gt;" style="ellipse;whiteSpace=wrap;html=1;aspect=fixed;fillColor=#dae8fc;strokeColor=#6c8ebf;" vertex="1" parent="1">
          <mxGeometry x="440" y="-890" width="70" height="70" as="geometry" />
        </mxCell>
        <mxCell id="zhd2C60yKObcGKXQmWrA-11" value="&lt;font style=&quot;vertical-align: inherit;&quot;&gt;&lt;font style=&quot;vertical-align: inherit;&quot;&gt;3&lt;/font&gt;&lt;/font&gt;" style="ellipse;whiteSpace=wrap;html=1;aspect=fixed;fillColor=#dae8fc;strokeColor=#6c8ebf;" vertex="1" parent="1">
          <mxGeometry x="450" y="-820" width="70" height="70" as="geometry" />
        </mxCell>
        <mxCell id="zhd2C60yKObcGKXQmWrA-12" value="&lt;font style=&quot;vertical-align: inherit;&quot;&gt;&lt;font style=&quot;vertical-align: inherit;&quot;&gt;...&lt;/font&gt;&lt;/font&gt;" style="ellipse;whiteSpace=wrap;html=1;aspect=fixed;fillColor=#dae8fc;strokeColor=#6c8ebf;" vertex="1" parent="1">
          <mxGeometry x="420" y="-750" width="70" height="70" as="geometry" />
        </mxCell>
        <mxCell id="zhd2C60yKObcGKXQmWrA-13" value="&lt;font style=&quot;vertical-align: inherit;&quot;&gt;&lt;font style=&quot;vertical-align: inherit;&quot;&gt;20&lt;/font&gt;&lt;/font&gt;" style="ellipse;whiteSpace=wrap;html=1;aspect=fixed;fillColor=#dae8fc;strokeColor=#6c8ebf;" vertex="1" parent="1">
          <mxGeometry x="340" y="-690" width="70" height="70" as="geometry" />
        </mxCell>
        <mxCell id="zhd2C60yKObcGKXQmWrA-14" value="&lt;font style=&quot;vertical-align: inherit;&quot;&gt;&lt;font style=&quot;vertical-align: inherit;&quot;&gt;21&lt;/font&gt;&lt;/font&gt;" style="ellipse;whiteSpace=wrap;html=1;aspect=fixed;fillColor=#dae8fc;strokeColor=#6c8ebf;" vertex="1" parent="1">
          <mxGeometry x="270" y="-680" width="70" height="70" as="geometry" />
        </mxCell>
        <mxCell id="zhd2C60yKObcGKXQmWrA-15" value="&lt;font style=&quot;vertical-align: inherit;&quot;&gt;&lt;font style=&quot;vertical-align: inherit;&quot;&gt;22&lt;/font&gt;&lt;/font&gt;" style="ellipse;whiteSpace=wrap;html=1;aspect=fixed;fillColor=#dae8fc;strokeColor=#6c8ebf;" vertex="1" parent="1">
          <mxGeometry x="200" y="-710" width="70" height="70" as="geometry" />
        </mxCell>
        <mxCell id="zhd2C60yKObcGKXQmWrA-16" value="&lt;font style=&quot;vertical-align: inherit;&quot;&gt;&lt;font style=&quot;vertical-align: inherit;&quot;&gt;55&lt;/font&gt;&lt;/font&gt;" style="ellipse;whiteSpace=wrap;html=1;aspect=fixed;fillColor=#dae8fc;strokeColor=#6c8ebf;" vertex="1" parent="1">
          <mxGeometry x="270" y="-1000" width="70" height="70" as="geometry" />
        </mxCell>
        <mxCell id="zhd2C60yKObcGKXQmWrA-17" value="54" style="ellipse;whiteSpace=wrap;html=1;aspect=fixed;fillColor=#dae8fc;strokeColor=#6c8ebf;" vertex="1" parent="1">
          <mxGeometry x="200" y="-970" width="70" height="70" as="geometry" />
        </mxCell>
        <mxCell id="zhd2C60yKObcGKXQmWrA-18" value="&lt;font style=&quot;vertical-align: inherit;&quot;&gt;&lt;font style=&quot;vertical-align: inherit;&quot;&gt;53&lt;/font&gt;&lt;/font&gt;" style="ellipse;whiteSpace=wrap;html=1;aspect=fixed;fillColor=#dae8fc;strokeColor=#6c8ebf;" vertex="1" parent="1">
          <mxGeometry x="150" y="-920" width="70" height="70" as="geometry" />
        </mxCell>
        <mxCell id="zhd2C60yKObcGKXQmWrA-19" value="&lt;font style=&quot;vertical-align: inherit;&quot;&gt;&lt;font style=&quot;vertical-align: inherit;&quot;&gt;...&lt;/font&gt;&lt;/font&gt;" style="ellipse;whiteSpace=wrap;html=1;aspect=fixed;fillColor=#dae8fc;strokeColor=#6c8ebf;" vertex="1" parent="1">
          <mxGeometry x="130" y="-810" width="70" height="70" as="geometry" />
        </mxCell>
        <mxCell id="zhd2C60yKObcGKXQmWrA-20" value="" style="endArrow=classic;html=1;rounded=0;fontFamily=Helvetica;fontSize=12;fontColor=default;" edge="1" parent="1" target="zhd2C60yKObcGKXQmWrA-8">
          <mxGeometry width="50" height="50" relative="1" as="geometry">
            <mxPoint x="500" y="-1060" as="sourcePoint" />
            <mxPoint x="420" y="-1010" as="targetPoint" />
          </mxGeometry>
        </mxCell>
        <mxCell id="zhd2C60yKObcGKXQmWrA-21" value="" style="endArrow=classic;html=1;rounded=0;fontFamily=Helvetica;fontSize=12;fontColor=default;" edge="1" parent="1" target="zhd2C60yKObcGKXQmWrA-9">
          <mxGeometry width="50" height="50" relative="1" as="geometry">
            <mxPoint x="568" y="-1040" as="sourcePoint" />
            <mxPoint x="470" y="-958" as="targetPoint" />
          </mxGeometry>
        </mxCell>
        <mxCell id="zhd2C60yKObcGKXQmWrA-22" value="队列尾部&lt;span style=&quot;color: rgb(199, 125, 187); font-family: &amp;quot;JetBrains Mono&amp;quot;, monospace; font-size: 11.3pt; background-color: rgb(30, 31, 34);&quot;&gt;next&lt;/span&gt;" style="text;html=1;align=center;verticalAlign=middle;whiteSpace=wrap;rounded=0;fontFamily=Helvetica;fontSize=12;fontColor=default;" vertex="1" parent="1">
          <mxGeometry x="490" y="-1100" width="60" height="30" as="geometry" />
        </mxCell>
        <mxCell id="zhd2C60yKObcGKXQmWrA-23" value="队列头部 head" style="text;html=1;align=center;verticalAlign=middle;whiteSpace=wrap;rounded=0;fontFamily=Helvetica;fontSize=12;fontColor=default;" vertex="1" parent="1">
          <mxGeometry x="550" y="-1070" width="60" height="30" as="geometry" />
        </mxCell>
        <mxCell id="zhd2C60yKObcGKXQmWrA-26" value="&lt;font style=&quot;font-size: 18px;&quot;&gt;循环队列&lt;/font&gt;" style="text;html=1;align=center;verticalAlign=middle;whiteSpace=wrap;rounded=0;fontFamily=Helvetica;fontSize=12;fontColor=default;" vertex="1" parent="1">
          <mxGeometry x="550" y="-950" width="100" height="40" as="geometry" />
        </mxCell>
        <mxCell id="zhd2C60yKObcGKXQmWrA-36" value="" style="endArrow=classic;html=1;rounded=0;fontFamily=Helvetica;fontSize=12;fontColor=default;edgeStyle=orthogonalEdgeStyle;curved=1;" edge="1" parent="1">
          <mxGeometry width="50" height="50" relative="1" as="geometry">
            <mxPoint x="560" y="-880" as="sourcePoint" />
            <mxPoint x="560" y="-640" as="targetPoint" />
            <Array as="points">
              <mxPoint x="580" y="-880" />
              <mxPoint x="580" y="-870" />
              <mxPoint x="590" y="-870" />
              <mxPoint x="590" y="-640" />
            </Array>
          </mxGeometry>
        </mxCell>
      </root>
    </mxGraphModel>
  </diagram>
</mxfile>
